<svg width="32" height="32" viewBox="0 0 32 32" fill="none" xmlns="http://www.w3.org/2000/svg">
  <!-- Hair/head silhouette -->
  <path d="M16 3C12.5 3 10 5.5 10 9V14C10 18.5 12.5 21 16 21C19.5 21 22 18.5 22 14V9C22 5.5 19.5 3 16 3Z" fill="#374151"/>
  
  <!-- Haircut lines -->
  <path d="M12 12L20 12" stroke="#3B82F6" stroke-width="1.5" stroke-linecap="round"/>
  <path d="M13 14.5L19 14.5" stroke="#3B82F6" stroke-width="1.5" stroke-linecap="round"/>
  <path d="M14 17L18 17" stroke="#3B82F6" stroke-width="1.5" stroke-linecap="round"/>
  
  <!-- Scissors -->
  <circle cx="10" cy="26" r="1.5" fill="#3B82F6"/>
  <circle cx="14" cy="26" r="1.5" fill="#3B82F6"/>
  <path d="M10 26L14 26" stroke="#3B82F6" stroke-width="0.8"/>
  <path d="M12 24.5L12 27.5" stroke="#3B82F6" stroke-width="0.8"/>
  
  <!-- Calendar icon -->
  <rect x="19" y="24" width="6" height="5" rx="0.8" fill="none" stroke="#3B82F6" stroke-width="0.8"/>
  <path d="M20.5 22.5V24" stroke="#3B82F6" stroke-width="0.8"/>
  <path d="M23.5 22.5V24" stroke="#3B82F6" stroke-width="0.8"/>
  <path d="M20.5 26.5L22 26.5" stroke="#3B82F6" stroke-width="0.5"/>
</svg>
